<?xml version="1.0" encoding="UTF-8"?>
<svg version="1.1" xmlns="http://www.w3.org/2000/svg" width="184" height="68">
<path d="M0 0 C0.52980469 0.48726562 1.05960938 0.97453125 1.60546875 1.4765625 C1.52976897 4.6559534 1.23778838 6.78545938 -0.94921875 9.17578125 C-3.32945927 11.21528194 -5.58450912 13.07155144 -8.39453125 14.4765625 C-8.50704858 20.55249812 -8.08713483 26.44101702 -7.39453125 32.4765625 C-9.33203125 33.0390625 -9.33203125 33.0390625 -11.39453125 33.4765625 C-13.11210091 31.75899284 -12.87024031 29.39898885 -13.1484375 27.05078125 C-13.28056641 25.94412109 -13.41269531 24.83746094 -13.54882812 23.69726562 C-13.68353516 22.53130859 -13.81824219 21.36535156 -13.95703125 20.1640625 C-14.09560547 19.00970703 -14.23417969 17.85535156 -14.37695312 16.66601562 C-14.89944212 12.23129374 -15.39453125 7.94669843 -15.39453125 3.4765625 C-15.97203125 3.9715625 -16.54953125 4.4665625 -17.14453125 4.9765625 C-19.39453125 6.4765625 -19.39453125 6.4765625 -23.39453125 6.4765625 C-23.33203125 4.1640625 -23.33203125 4.1640625 -22.39453125 1.4765625 C-16.44252087 -2.44635343 -6.18928521 -3.93771816 0 0 Z M-9.39453125 1.4765625 C-10.60014309 2.45924109 -10.60014309 2.45924109 -10.4921875 4.32421875 C-10.48058594 5.05511719 -10.46898437 5.78601562 -10.45703125 6.5390625 C-10.43640625 7.8384375 -10.41578125 9.1378125 -10.39453125 10.4765625 C-6.09762286 8.13923825 -6.09762286 8.13923825 -3.51953125 4.2265625 C-3.47828125 3.6490625 -3.43703125 3.0715625 -3.39453125 2.4765625 C-5.38593685 2.09522951 -7.38732202 1.76330668 -9.39453125 1.4765625 Z " fill="#FFFFFF" transform="translate(153.39453125,29.5234375)"/>
<path d="M0 0 C0.125 7.625 0.125 7.625 -1 11 C-1.99 11 -2.98 11 -4 11 C-3.67 8.69 -3.34 6.38 -3 4 C-8.73071096 5.84548319 -12.06036945 7.44480217 -16 12 C-12.08925799 14.60716134 -8.60793721 14.74609332 -4.0078125 15.33984375 C-0.7550107 16.05377038 1.35382488 16.98546162 4 19 C4.6875 22.375 4.6875 22.375 4 26 C1.86167671 28.79169985 1.11997179 29.73144004 -2 31 C-6.03706164 31.40062444 -9.95831017 31.2942978 -14 31 C-13.67 29.68 -13.34 28.36 -13 27 C-12.319375 27.20625 -11.63875 27.4125 -10.9375 27.625 C-7.21166669 28.10063829 -4.53007446 27.17669149 -1 26 C-1.495 23.525 -1.495 23.525 -2 21 C-3.03640625 20.81824219 -4.0728125 20.63648437 -5.140625 20.44921875 C-6.51052204 20.19588163 -7.88030806 19.9419437 -9.25 19.6875 C-9.93191406 19.56955078 -10.61382812 19.45160156 -11.31640625 19.33007812 C-15.2268915 18.58974354 -18.14036286 17.84523091 -21 15 C-21.5625 12.625 -21.5625 12.625 -21 10 C-15.82958912 3.32850209 -8.44168232 -0.89805131 0 0 Z " fill="#FFFFFF" transform="translate(23,19)"/>
<path d="M0 0 C2.625 0.375 2.625 0.375 5 1 C5.15855469 1.77085938 5.31710938 2.54171875 5.48046875 3.3359375 C5.71378906 4.33882812 5.94710937 5.34171875 6.1875 6.375 C6.40792969 7.37273438 6.62835938 8.37046875 6.85546875 9.3984375 C7.78082026 12.19402461 7.78082026 12.19402461 10.44921875 13.42578125 C13.07142851 14.28506765 13.07142851 14.28506765 15.625 12.8125 C17.96500194 11.12179558 17.96500194 11.12179558 19.625 9.3125 C21 8 21 8 24 8 C23.70179167 11.57849992 23.25754642 12.76226484 20.5625 15.25 C17.261236 17.50452175 15.57036188 18.15473121 11.625 18.1875 C10.85414062 18.20167969 10.08328125 18.21585938 9.2890625 18.23046875 C6.78165112 17.97801607 5.16738098 17.25193467 3 16 C2.34 16.66 1.68 17.32 1 18 C-1.625 18.125 -1.625 18.125 -4 18 C-5.19695939 11.64025194 -5.15121064 7.71886375 -2 2 C-1.34 1.34 -0.68 0.68 0 0 Z M0 8 C1 10 1 10 1 10 Z " fill="#FFFFFF" transform="translate(58,29)"/>
<path d="M0 0 C1.65 0 3.3 0 5 0 C4.85895309 2.91697011 4.71235186 5.8334802 4.5625 8.75 C4.52318359 9.575 4.48386719 10.4 4.44335938 11.25 C4.40146484 12.04921875 4.35957031 12.8484375 4.31640625 13.671875 C4.27974854 14.4050293 4.24309082 15.13818359 4.20532227 15.89355469 C3.99885215 18.01177605 3.56867914 19.9519456 3 22 C-0.71599191 22.20086443 -1.77208445 22.1519437 -5 20 C-5 20.66 -5 21.32 -5 22 C-6.65 22 -8.3 22 -10 22 C-10.84384675 20.58957044 -11.67469496 19.17135868 -12.5 17.75 C-12.9640625 16.96109375 -13.428125 16.1721875 -13.90625 15.359375 C-15 13 -15 13 -15 9 C-13.68 9 -12.36 9 -11 9 C-10.34 11.31 -9.68 13.62 -9 16 C-8.34 16 -7.68 16 -7 16 C-7 13.36 -7 10.72 -7 8 C-5.35 8.33 -3.7 8.66 -2 9 C-1.67 10.32 -1.34 11.64 -1 13 C-0.67 8.71 -0.34 4.42 0 0 Z " fill="#FFFFFF" transform="translate(44,23)"/>
<path d="M0 0 C1.21816406 0.03480469 1.21816406 0.03480469 2.4609375 0.0703125 C3.68683594 0.09738281 3.68683594 0.09738281 4.9375 0.125 C5.87722656 0.15980469 5.87722656 0.15980469 6.8359375 0.1953125 C7.1659375 1.5153125 7.4959375 2.8353125 7.8359375 4.1953125 C5.1959375 4.1953125 2.5559375 4.1953125 -0.1640625 4.1953125 C1.17519874 8.21309622 3.32728219 8.97555098 6.8359375 11.1953125 C7.4959375 11.8553125 8.1559375 12.5153125 8.8359375 13.1953125 C8.6484375 15.1953125 8.6484375 15.1953125 7.8359375 17.1953125 C4.41499508 19.47594078 3.15406528 19.41456257 -0.8515625 19.3203125 C-2.34236328 19.29324219 -2.34236328 19.29324219 -3.86328125 19.265625 C-4.62253906 19.24242188 -5.38179687 19.21921875 -6.1640625 19.1953125 C-6.1640625 18.2053125 -6.1640625 17.2153125 -6.1640625 16.1953125 C-1.7090625 15.7003125 -1.7090625 15.7003125 2.8359375 15.1953125 C0.15295743 12.24921502 0.15295743 12.24921502 -2.3515625 10.9453125 C-4.1640625 9.1953125 -4.1640625 9.1953125 -4.5390625 5.6328125 C-4.13751528 1.95196302 -3.90099429 0.3520753 0 0 Z " fill="#FFFFFF" transform="translate(174.1640625,27.8046875)"/>
<path d="M0 0 C3.71599191 -0.20086443 4.77208445 -0.1519437 8 2 C8.6171875 4.2421875 8.6171875 4.2421875 8.875 6.875 C8.97554687 7.73867188 9.07609375 8.60234375 9.1796875 9.4921875 C8.95804462 12.58555116 8.17108173 13.81893629 6 16 C2.9375 16.4375 2.9375 16.4375 0 16 C-2.07324138 12.89013793 -2.27392186 12.10891613 -2.25 8.5625 C-2.25515625 7.80066406 -2.2603125 7.03882813 -2.265625 6.25390625 C-1.9747292 3.78556982 -1.22975656 2.142314 0 0 Z M3 5 C1.70366379 6.06645115 1.70366379 6.06645115 1.9375 8.5625 C1.958125 9.366875 1.97875 10.17125 2 11 C2.99 11.495 2.99 11.495 4 12 C4 9.69 4 7.38 4 5 C3.67 5 3.34 5 3 5 Z " fill="#FFFFFF" transform="translate(104,28)"/>
<path d="M0 0 C2.625 0.25 2.625 0.25 4.26953125 1.41796875 C6.13765768 3.94290044 5.99133075 5.7027389 5.9375 8.8125 C5.93363281 9.78316406 5.92976562 10.75382812 5.92578125 11.75390625 C5.625 14.25 5.625 14.25 3.625 16.25 C0.625 16.5 0.625 16.5 -2.375 16.25 C-5.03748083 13.58751917 -5.09332705 11.98216655 -5.375 8.25 C-3.56774978 0.37555261 -3.56774978 0.37555261 0 0 Z M-0.375 5.25 C-0.375 7.56 -0.375 9.87 -0.375 12.25 C0.285 11.92 0.945 11.59 1.625 11.25 C1.625 9.27 1.625 7.29 1.625 5.25 C0.965 5.25 0.305 5.25 -0.375 5.25 Z " fill="#FFFFFF" transform="translate(123.375,27.75)"/>
<path d="M0 0 C1.79244141 0.01740234 1.79244141 0.01740234 3.62109375 0.03515625 C5.41740234 0.04869141 5.41740234 0.04869141 7.25 0.0625 C8.17683594 0.07410156 9.10367188 0.08570312 10.05859375 0.09765625 C10.05859375 1.08765625 10.05859375 2.07765625 10.05859375 3.09765625 C7.41859375 3.75765625 4.77859375 4.41765625 2.05859375 5.09765625 C2.05859375 8.72765625 2.05859375 12.35765625 2.05859375 16.09765625 C0.40859375 15.76765625 -1.24140625 15.43765625 -2.94140625 15.09765625 C-3.98017008 11.98136476 -4.0750225 9.73821335 -4.06640625 6.47265625 C-4.06898437 5.49039063 -4.0715625 4.508125 -4.07421875 3.49609375 C-3.87779972 -0.05100291 -3.60870773 0.11981101 0 0 Z " fill="#FFFFFF" transform="translate(86.94140625,29.90234375)"/>
<path d="M0 0 C1.32 0 2.64 0 4 0 C3.68991116 1.60463449 3.37683713 3.20869231 3.0625 4.8125 C2.88847656 5.70582031 2.71445313 6.59914063 2.53515625 7.51953125 C2 10 2 10 1 13 C0.01 13 -0.98 13 -2 13 C-3.18771723 9.57056481 -2.80226223 7.62215325 -1.5625 4.25 C-1.27503906 3.45078125 -0.98757812 2.6515625 -0.69140625 1.828125 C-0.46324219 1.22484375 -0.23507813 0.6215625 0 0 Z " fill="#FFFFFF" transform="translate(160,16)"/>
</svg>
